STARTFONT 2.1
FONT -jmk-Neep-Bold-R-SemiCondensed--11-100-75-75-C-50-ISO8859-9
SIZE 10 75 75
FONTBOUNDINGBOX 5 11 0 -2
STARTPROPERTIES 29
FONTNAME_REGISTRY ""
FOUNDRY "jmk"
FAMILY_NAME "Neep"
WEIGHT_NAME "Bold"
SLANT "R"
SETWIDTH_NAME "SemiCondensed"
ADD_STYLE_NAME ""
PIXEL_SIZE 11
POINT_SIZE 100
RESOLUTION_X 75
RESOLUTION_Y 75
SPACING "C"
AVERAGE_WIDTH 50
CHARSET_REGISTRY "ISO8859"
CHARSET_ENCODING "9"
COPYRIGHT "Jim Knoble <jmknoble@pobox.com>"
WEIGHT 210
RESOLUTION 75
X_HEIGHT 5
FIGURE_WIDTH 5
QUAD_WIDTH 5
FONT_ASCENT 9
FONT_DESCENT 2
_XMBDFED_INFO "Edited with xmbdfed 3.7."
RELATIVE_WEIGHT 70
RELATIVE_SETWIDTH 40
CAP_HEIGHT 7
UNDERLINE_POSITION -1
UNDERLINE_THICKNESS 1
ENDPROPERTIES
CHARS 128
STARTCHAR nil
ENCODING 128
SWIDTH 480 0
DWIDTH 5 0
BBX 5 11 0 -2
BITMAP
00
F0
90
90
90
90
90
90
90
F0
00
ENDCHAR
STARTCHAR nil
ENCODING 129
SWIDTH 480 0
DWIDTH 5 0
BBX 5 11 0 -2
BITMAP
00
F0
90
90
90
90
90
90
90
F0
00
ENDCHAR
STARTCHAR nil
ENCODING 130
SWIDTH 480 0
DWIDTH 5 0
BBX 5 11 0 -2
BITMAP
00
F0
90
90
90
90
90
90
90
F0
00
ENDCHAR
STARTCHAR nil
ENCODING 131
SWIDTH 480 0
DWIDTH 5 0
BBX 5 11 0 -2
BITMAP
00
F0
90
90
90
90
90
90
90
F0
00
ENDCHAR
STARTCHAR nil
ENCODING 132
SWIDTH 480 0
DWIDTH 5 0
BBX 5 11 0 -2
BITMAP
00
F0
90
90
90
90
90
90
90
F0
00
ENDCHAR
STARTCHAR nil
ENCODING 133
SWIDTH 480 0
DWIDTH 5 0
BBX 5 11 0 -2
BITMAP
00
F0
90
90
90
90
90
90
90
F0
00
ENDCHAR
STARTCHAR nil
ENCODING 134
SWIDTH 480 0
DWIDTH 5 0
BBX 5 11 0 -2
BITMAP
00
F0
90
90
90
90
90
90
90
F0
00
ENDCHAR
STARTCHAR nil
ENCODING 135
SWIDTH 480 0
DWIDTH 5 0
BBX 5 11 0 -2
BITMAP
00
F0
90
90
90
90
90
90
90
F0
00
ENDCHAR
STARTCHAR nil
ENCODING 136
SWIDTH 480 0
DWIDTH 5 0
BBX 5 11 0 -2
BITMAP
00
F0
90
90
90
90
90
90
90
F0
00
ENDCHAR
STARTCHAR nil
ENCODING 137
SWIDTH 480 0
DWIDTH 5 0
BBX 5 11 0 -2
BITMAP
00
F0
90
90
90
90
90
90
90
F0
00
ENDCHAR
STARTCHAR nil
ENCODING 138
SWIDTH 480 0
DWIDTH 5 0
BBX 5 11 0 -2
BITMAP
00
F0
90
90
90
90
90
90
90
F0
00
ENDCHAR
STARTCHAR nil
ENCODING 139
SWIDTH 480 0
DWIDTH 5 0
BBX 5 11 0 -2
BITMAP
00
F0
90
90
90
90
90
90
90
F0
00
ENDCHAR
STARTCHAR nil
ENCODING 140
SWIDTH 480 0
DWIDTH 5 0
BBX 5 11 0 -2
BITMAP
00
F0
90
90
90
90
90
90
90
F0
00
ENDCHAR
STARTCHAR nil
ENCODING 141
SWIDTH 480 0
DWIDTH 5 0
BBX 5 11 0 -2
BITMAP
00
F0
90
90
90
90
90
90
90
F0
00
ENDCHAR
STARTCHAR nil
ENCODING 142
SWIDTH 480 0
DWIDTH 5 0
BBX 5 11 0 -2
BITMAP
00
F0
90
90
90
90
90
90
90
F0
00
ENDCHAR
STARTCHAR nil
ENCODING 143
SWIDTH 480 0
DWIDTH 5 0
BBX 5 11 0 -2
BITMAP
00
F0
90
90
90
90
90
90
90
F0
00
ENDCHAR
STARTCHAR nil
ENCODING 144
SWIDTH 480 0
DWIDTH 5 0
BBX 5 11 0 -2
BITMAP
00
F0
90
90
90
90
90
90
90
F0
00
ENDCHAR
STARTCHAR nil
ENCODING 145
SWIDTH 480 0
DWIDTH 5 0
BBX 5 11 0 -2
BITMAP
00
F0
90
90
90
90
90
90
90
F0
00
ENDCHAR
STARTCHAR nil
ENCODING 146
SWIDTH 480 0
DWIDTH 5 0
BBX 5 11 0 -2
BITMAP
00
F0
90
90
90
90
90
90
90
F0
00
ENDCHAR
STARTCHAR nil
ENCODING 147
SWIDTH 480 0
DWIDTH 5 0
BBX 5 11 0 -2
BITMAP
00
F0
90
90
90
90
90
90
90
F0
00
ENDCHAR
STARTCHAR nil
ENCODING 148
SWIDTH 480 0
DWIDTH 5 0
BBX 5 11 0 -2
BITMAP
00
F0
90
90
90
90
90
90
90
F0
00
ENDCHAR
STARTCHAR nil
ENCODING 149
SWIDTH 480 0
DWIDTH 5 0
BBX 5 11 0 -2
BITMAP
00
F0
90
90
90
90
90
90
90
F0
00
ENDCHAR
STARTCHAR nil
ENCODING 150
SWIDTH 480 0
DWIDTH 5 0
BBX 5 11 0 -2
BITMAP
00
F0
90
90
90
90
90
90
90
F0
00
ENDCHAR
STARTCHAR nil
ENCODING 151
SWIDTH 480 0
DWIDTH 5 0
BBX 5 11 0 -2
BITMAP
00
F0
90
90
90
90
90
90
90
F0
00
ENDCHAR
STARTCHAR nil
ENCODING 152
SWIDTH 480 0
DWIDTH 5 0
BBX 5 11 0 -2
BITMAP
00
F0
90
90
90
90
90
90
90
F0
00
ENDCHAR
STARTCHAR nil
ENCODING 153
SWIDTH 480 0
DWIDTH 5 0
BBX 5 11 0 -2
BITMAP
00
F0
90
90
90
90
90
90
90
F0
00
ENDCHAR
STARTCHAR nil
ENCODING 154
SWIDTH 480 0
DWIDTH 5 0
BBX 5 11 0 -2
BITMAP
00
F0
90
90
90
90
90
90
90
F0
00
ENDCHAR
STARTCHAR nil
ENCODING 155
SWIDTH 480 0
DWIDTH 5 0
BBX 5 11 0 -2
BITMAP
00
F0
90
90
90
90
90
90
90
F0
00
ENDCHAR
STARTCHAR nil
ENCODING 156
SWIDTH 480 0
DWIDTH 5 0
BBX 5 11 0 -2
BITMAP
00
F0
90
90
90
90
90
90
90
F0
00
ENDCHAR
STARTCHAR nil
ENCODING 157
SWIDTH 480 0
DWIDTH 5 0
BBX 5 11 0 -2
BITMAP
00
F0
90
90
90
90
90
90
90
F0
00
ENDCHAR
STARTCHAR nil
ENCODING 158
SWIDTH 480 0
DWIDTH 5 0
BBX 5 11 0 -2
BITMAP
00
F0
90
90
90
90
90
90
90
F0
00
ENDCHAR
STARTCHAR nil
ENCODING 159
SWIDTH 480 0
DWIDTH 5 0
BBX 5 11 0 -2
BITMAP
00
F0
90
90
90
90
90
90
90
F0
00
ENDCHAR
STARTCHAR U+00a0 no-break space
ENCODING 160
SWIDTH 480 0
DWIDTH 5 0
BBX 5 11 0 -2
BITMAP
00
00
00
00
00
00
00
00
00
00
00
ENDCHAR
STARTCHAR U+00a1 inverted exclamation mark
ENCODING 161
SWIDTH 480 0
DWIDTH 5 0
BBX 5 11 0 -2
BITMAP
00
00
00
00
60
00
60
60
60
60
60
ENDCHAR
STARTCHAR U+00a2 cent sign
ENCODING 162
SWIDTH 480 0
DWIDTH 5 0
BBX 5 11 0 -2
BITMAP
00
00
20
70
D8
C0
D8
70
20
00
00
ENDCHAR
STARTCHAR pound sign
ENCODING 163
SWIDTH 480 0
DWIDTH 5 0
BBX 5 11 0 -2
BITMAP
00
00
30
78
60
F0
60
60
F8
00
00
ENDCHAR
STARTCHAR U+00a4 currency sign
ENCODING 164
SWIDTH 480 0
DWIDTH 5 0
BBX 5 11 0 -2
BITMAP
00
00
00
D8
70
D8
D8
70
D8
00
00
ENDCHAR
STARTCHAR U+00a5 yen sign
ENCODING 165
SWIDTH 480 0
DWIDTH 5 0
BBX 5 11 0 -2
BITMAP
00
00
D8
D8
70
F8
30
F8
30
00
00
ENDCHAR
STARTCHAR U+00a6 broken bar
ENCODING 166
SWIDTH 480 0
DWIDTH 5 0
BBX 5 11 0 -2
BITMAP
00
60
60
60
60
00
60
60
60
60
00
ENDCHAR
STARTCHAR U+00a7 section sign
ENCODING 167
SWIDTH 480 0
DWIDTH 5 0
BBX 5 11 0 -2
BITMAP
00
78
C0
70
D8
D8
70
18
F0
00
00
ENDCHAR
STARTCHAR U+00a8 diaresis
ENCODING 168
SWIDTH 480 0
DWIDTH 5 0
BBX 5 11 0 -2
BITMAP
00
D8
D8
00
00
00
00
00
00
00
00
ENDCHAR
STARTCHAR U+00a9 copyright sign
ENCODING 169
SWIDTH 480 0
DWIDTH 5 0
BBX 5 11 0 -2
BITMAP
00
70
88
B8
E8
E8
B8
88
70
00
00
ENDCHAR
STARTCHAR U+00aa feminine ordinal indicator
ENCODING 170
SWIDTH 480 0
DWIDTH 5 0
BBX 5 11 0 -2
BITMAP
00
70
18
78
D8
78
00
F8
00
00
00
ENDCHAR
STARTCHAR U+00ab left-pointing double angle quotation mark
ENCODING 171
SWIDTH 480 0
DWIDTH 5 0
BBX 5 11 0 -2
BITMAP
00
00
00
00
48
D8
D8
48
00
00
00
ENDCHAR
STARTCHAR U+00ac not sign
ENCODING 172
SWIDTH 480 0
DWIDTH 5 0
BBX 5 11 0 -2
BITMAP
00
00
00
00
00
F0
30
30
00
00
00
ENDCHAR
STARTCHAR U+00ad soft hyphen
ENCODING 173
SWIDTH 480 0
DWIDTH 5 0
BBX 5 11 0 -2
BITMAP
00
00
00
00
00
70
70
00
00
00
00
ENDCHAR
STARTCHAR U+00ae registered sign
ENCODING 174
SWIDTH 480 0
DWIDTH 5 0
BBX 5 11 0 -2
BITMAP
00
70
88
B8
E8
E8
E8
88
70
00
00
ENDCHAR
STARTCHAR U+00af macron
ENCODING 175
SWIDTH 480 0
DWIDTH 5 0
BBX 5 11 0 -2
BITMAP
00
F0
F0
00
00
00
00
00
00
00
00
ENDCHAR
STARTCHAR U+00b0 degree sign
ENCODING 176
SWIDTH 480 0
DWIDTH 5 0
BBX 5 11 0 -2
BITMAP
00
70
D8
D8
70
00
00
00
00
00
00
ENDCHAR
STARTCHAR U+00b1 plus-minus sign
ENCODING 177
SWIDTH 480 0
DWIDTH 5 0
BBX 5 11 0 -2
BITMAP
00
00
60
60
F0
60
60
00
F0
F0
00
ENDCHAR
STARTCHAR U+00b2 superscript two
ENCODING 178
SWIDTH 480 0
DWIDTH 5 0
BBX 5 11 0 -2
BITMAP
00
60
B0
30
60
F0
00
00
00
00
00
ENDCHAR
STARTCHAR U+00b3 superscript three
ENCODING 179
SWIDTH 480 0
DWIDTH 5 0
BBX 5 11 0 -2
BITMAP
00
F0
60
30
B0
60
00
00
00
00
00
ENDCHAR
STARTCHAR U+00b4 acute accent
ENCODING 180
SWIDTH 480 0
DWIDTH 5 0
BBX 5 11 0 -2
BITMAP
00
30
60
00
00
00
00
00
00
00
00
ENDCHAR
STARTCHAR U+00b5 micro sign
ENCODING 181
SWIDTH 480 0
DWIDTH 5 0
BBX 5 11 0 -2
BITMAP
00
00
00
00
D8
D8
D8
F8
D8
C0
00
ENDCHAR
STARTCHAR U+00b6 pilcrow sign
ENCODING 182
SWIDTH 480 0
DWIDTH 5 0
BBX 5 11 0 -2
BITMAP
00
00
70
F0
F0
70
30
30
30
00
00
ENDCHAR
STARTCHAR U+00b7 middle dot
ENCODING 183
SWIDTH 480 0
DWIDTH 5 0
BBX 5 11 0 -2
BITMAP
00
00
00
00
00
60
60
00
00
00
00
ENDCHAR
STARTCHAR U+00b8 cedilla
ENCODING 184
SWIDTH 480 0
DWIDTH 5 0
BBX 5 11 0 -2
BITMAP
00
00
00
00
00
00
00
00
60
30
60
ENDCHAR
STARTCHAR U+00b9 superscript one
ENCODING 185
SWIDTH 480 0
DWIDTH 5 0
BBX 5 11 0 -2
BITMAP
00
60
E0
60
60
60
00
00
00
00
00
ENDCHAR
STARTCHAR U+00ba masculine ordinal indicator
ENCODING 186
SWIDTH 480 0
DWIDTH 5 0
BBX 5 11 0 -2
BITMAP
00
70
D8
D8
D8
70
00
F8
00
00
00
ENDCHAR
STARTCHAR U+00bb right-pointing double angle quotation mark
ENCODING 187
SWIDTH 480 0
DWIDTH 5 0
BBX 5 11 0 -2
BITMAP
00
00
00
00
90
D8
D8
90
00
00
00
ENDCHAR
STARTCHAR U+00bc vulgar fraction one quarter
ENCODING 188
SWIDTH 480 0
DWIDTH 5 0
BBX 5 11 0 -2
BITMAP
00
60
E0
60
60
00
18
38
58
78
18
ENDCHAR
STARTCHAR U+00bd vulgar fraction one half
ENCODING 189
SWIDTH 480 0
DWIDTH 5 0
BBX 5 11 0 -2
BITMAP
00
60
E0
60
60
00
30
58
18
30
78
ENDCHAR
STARTCHAR U+00be vulgar fraction three quarters
ENCODING 190
SWIDTH 480 0
DWIDTH 5 0
BBX 5 11 0 -2
BITMAP
00
F0
60
30
B0
60
18
38
58
78
18
ENDCHAR
STARTCHAR U+00bf inverted question mark
ENCODING 191
SWIDTH 480 0
DWIDTH 5 0
BBX 5 11 0 -2
BITMAP
00
00
00
00
30
00
30
30
60
C0
78
ENDCHAR
STARTCHAR U+00c0 latin capital letter A with grave
ENCODING 192
SWIDTH 480 0
DWIDTH 5 0
BBX 5 11 0 -2
BITMAP
60
30
00
70
D8
D8
F8
D8
D8
00
00
ENDCHAR
STARTCHAR U+00c1 latin capital letter A with acute
ENCODING 193
SWIDTH 480 0
DWIDTH 5 0
BBX 5 11 0 -2
BITMAP
30
60
00
70
D8
D8
F8
D8
D8
00
00
ENDCHAR
STARTCHAR U+00c2 latin capital letter A with circumflex
ENCODING 194
SWIDTH 480 0
DWIDTH 5 0
BBX 5 11 0 -2
BITMAP
70
D8
00
70
D8
D8
F8
D8
D8
00
00
ENDCHAR
STARTCHAR U+00c3 latin capital letter A with tilde
ENCODING 195
SWIDTH 480 0
DWIDTH 5 0
BBX 5 11 0 -2
BITMAP
68
B0
00
70
D8
D8
F8
D8
D8
00
00
ENDCHAR
STARTCHAR U+00c4 latin capital letter A with diaresis
ENCODING 196
SWIDTH 480 0
DWIDTH 5 0
BBX 5 11 0 -2
BITMAP
D8
D8
00
70
D8
D8
F8
D8
D8
00
00
ENDCHAR
STARTCHAR U+00c5 latin capital letter A with ring above
ENCODING 197
SWIDTH 480 0
DWIDTH 5 0
BBX 5 11 0 -2
BITMAP
70
D8
70
70
D8
D8
F8
D8
D8
00
00
ENDCHAR
STARTCHAR U+00c6 latin capital ligature AE
ENCODING 198
SWIDTH 480 0
DWIDTH 5 0
BBX 5 11 0 -2
BITMAP
00
00
78
B0
B0
F8
B0
B0
B8
00
00
ENDCHAR
STARTCHAR U+00c7 latin capital letter C with cedilla
ENCODING 199
SWIDTH 480 0
DWIDTH 5 0
BBX 5 11 0 -2
BITMAP
00
00
70
D8
C0
C0
C0
D8
70
30
60
ENDCHAR
STARTCHAR U+00c8 latin capital letter E with grave
ENCODING 200
SWIDTH 480 0
DWIDTH 5 0
BBX 5 11 0 -2
BITMAP
60
30
00
F8
C0
F0
C0
C0
F8
00
00
ENDCHAR
STARTCHAR U+00c9 latin capital letter E with acute
ENCODING 201
SWIDTH 480 0
DWIDTH 5 0
BBX 5 11 0 -2
BITMAP
30
60
00
F8
C0
F0
C0
C0
F8
00
00
ENDCHAR
STARTCHAR U+00ca latin capital letter E with circumflex
ENCODING 202
SWIDTH 480 0
DWIDTH 5 0
BBX 5 11 0 -2
BITMAP
70
D8
00
F8
C0
F0
C0
C0
F8
00
00
ENDCHAR
STARTCHAR U+00cb latin capital letter E with diaresis
ENCODING 203
SWIDTH 480 0
DWIDTH 5 0
BBX 5 11 0 -2
BITMAP
D8
D8
00
F8
C0
F0
C0
C0
F8
00
00
ENDCHAR
STARTCHAR U+00cc latin capital letter I with grave
ENCODING 204
SWIDTH 480 0
DWIDTH 5 0
BBX 5 11 0 -2
BITMAP
C0
60
00
F0
60
60
60
60
F0
00
00
ENDCHAR
STARTCHAR U+00cd latin capital letter I with acute
ENCODING 205
SWIDTH 480 0
DWIDTH 5 0
BBX 5 11 0 -2
BITMAP
30
60
00
F0
60
60
60
60
F0
00
00
ENDCHAR
STARTCHAR U+00ce latin capital letter I with circumflex
ENCODING 206
SWIDTH 480 0
DWIDTH 5 0
BBX 5 11 0 -2
BITMAP
70
D8
00
F0
60
60
60
60
F0
00
00
ENDCHAR
STARTCHAR U+00cf latin capital letter I with diaresis
ENCODING 207
SWIDTH 480 0
DWIDTH 5 0
BBX 5 11 0 -2
BITMAP
D8
D8
00
F0
60
60
60
60
F0
00
00
ENDCHAR
STARTCHAR U+011e latin capital letter G with breve
ENCODING 208
SWIDTH 480 0
DWIDTH 5 0
BBX 5 11 0 -2
BITMAP
88
70
00
70
D8
C0
D8
D8
78
00
00
ENDCHAR
STARTCHAR U+00d1 latin capital letter N with tilde
ENCODING 209
SWIDTH 480 0
DWIDTH 5 0
BBX 5 11 0 -2
BITMAP
68
B0
00
98
D8
F8
F8
D8
C8
00
00
ENDCHAR
STARTCHAR U+00d2 latin capital letter O with grave
ENCODING 210
SWIDTH 480 0
DWIDTH 5 0
BBX 5 11 0 -2
BITMAP
60
30
00
70
D8
D8
D8
D8
70
00
00
ENDCHAR
STARTCHAR U+00d3 latin capital letter O with acute
ENCODING 211
SWIDTH 480 0
DWIDTH 5 0
BBX 5 11 0 -2
BITMAP
30
60
00
70
D8
D8
D8
D8
70
00
00
ENDCHAR
STARTCHAR U+00d4 latin capital letter O with circumflex
ENCODING 212
SWIDTH 480 0
DWIDTH 5 0
BBX 5 11 0 -2
BITMAP
70
D8
00
70
D8
D8
D8
D8
70
00
00
ENDCHAR
STARTCHAR U+00d5 latin capital letter O with tilde
ENCODING 213
SWIDTH 480 0
DWIDTH 5 0
BBX 5 11 0 -2
BITMAP
68
B0
00
70
D8
D8
D8
D8
70
00
00
ENDCHAR
STARTCHAR U+00d6 latin capital letter O with diaresis
ENCODING 214
SWIDTH 480 0
DWIDTH 5 0
BBX 5 11 0 -2
BITMAP
D8
D8
00
70
D8
D8
D8
D8
70
00
00
ENDCHAR
STARTCHAR U+00d7 multiplication sign
ENCODING 215
SWIDTH 480 0
DWIDTH 5 0
BBX 5 11 0 -2
BITMAP
00
00
00
00
D8
F8
70
F8
D8
00
00
ENDCHAR
STARTCHAR U+00d8 latin capital letter O with stroke
ENCODING 216
SWIDTH 480 0
DWIDTH 5 0
BBX 5 11 0 -2
BITMAP
00
08
78
D8
D8
F8
D8
D8
F0
80
00
ENDCHAR
STARTCHAR U+00d9 latin capital letter U with grave
ENCODING 217
SWIDTH 480 0
DWIDTH 5 0
BBX 5 11 0 -2
BITMAP
60
30
00
D8
D8
D8
D8
D8
70
00
00
ENDCHAR
STARTCHAR U+00da latin capital letter U with acute
ENCODING 218
SWIDTH 480 0
DWIDTH 5 0
BBX 5 11 0 -2
BITMAP
30
60
00
D8
D8
D8
D8
D8
70
00
00
ENDCHAR
STARTCHAR U+00db latin capital letter U with circumflex
ENCODING 219
SWIDTH 480 0
DWIDTH 5 0
BBX 5 11 0 -2
BITMAP
70
D8
00
D8
D8
D8
D8
D8
70
00
00
ENDCHAR
STARTCHAR U+00dc latin capital letter U with diaresis
ENCODING 220
SWIDTH 480 0
DWIDTH 5 0
BBX 5 11 0 -2
BITMAP
D8
D8
00
D8
D8
D8
D8
D8
70
00
00
ENDCHAR
STARTCHAR U+0130 latin capital letter I with dot above
ENCODING 221
SWIDTH 480 0
DWIDTH 5 0
BBX 5 11 0 -2
BITMAP
60
60
00
F0
60
60
60
60
F0
00
00
ENDCHAR
STARTCHAR U+015e latin capital letter S with cedilla
ENCODING 222
SWIDTH 480 0
DWIDTH 5 0
BBX 5 11 0 -2
BITMAP
00
00
70
D8
C0
70
18
D8
70
30
60
ENDCHAR
STARTCHAR U+00df latin small letter sharp s
ENCODING 223
SWIDTH 480 0
DWIDTH 5 0
BBX 5 11 0 -2
BITMAP
00
00
70
D8
F0
D8
D8
D8
F0
C0
00
ENDCHAR
STARTCHAR U+00e0 latin small letter a with grave
ENCODING 224
SWIDTH 480 0
DWIDTH 5 0
BBX 5 11 0 -2
BITMAP
00
60
30
00
70
18
78
D8
78
00
00
ENDCHAR
STARTCHAR U+00e1 latin small letter a with acute
ENCODING 225
SWIDTH 480 0
DWIDTH 5 0
BBX 5 11 0 -2
BITMAP
00
30
60
00
70
18
78
D8
78
00
00
ENDCHAR
STARTCHAR U+00e2 latin small letter a with circumflex
ENCODING 226
SWIDTH 480 0
DWIDTH 5 0
BBX 5 11 0 -2
BITMAP
00
70
D8
00
70
18
78
D8
78
00
00
ENDCHAR
STARTCHAR U+00e3 latin small letter a with tilde
ENCODING 227
SWIDTH 480 0
DWIDTH 5 0
BBX 5 11 0 -2
BITMAP
00
68
B0
00
70
18
78
D8
78
00
00
ENDCHAR
STARTCHAR U+00e4 latin small letter a with diaresis
ENCODING 228
SWIDTH 480 0
DWIDTH 5 0
BBX 5 11 0 -2
BITMAP
00
D8
D8
00
70
18
78
D8
78
00
00
ENDCHAR
STARTCHAR U+00e5 latin small letter a with ring above
ENCODING 229
SWIDTH 480 0
DWIDTH 5 0
BBX 5 11 0 -2
BITMAP
70
D8
70
00
70
18
78
D8
78
00
00
ENDCHAR
STARTCHAR U+00e6 latin small ligature ae
ENCODING 230
SWIDTH 480 0
DWIDTH 5 0
BBX 5 11 0 -2
BITMAP
00
00
00
00
D8
68
78
B0
68
00
00
ENDCHAR
STARTCHAR U+00e7 latin small letter c with cedilla
ENCODING 231
SWIDTH 480 0
DWIDTH 5 0
BBX 5 11 0 -2
BITMAP
00
00
00
00
70
D8
C0
D8
70
30
60
ENDCHAR
STARTCHAR U+00e8 latin small letter e with grave
ENCODING 232
SWIDTH 480 0
DWIDTH 5 0
BBX 5 11 0 -2
BITMAP
00
60
30
00
70
D8
F8
C0
70
00
00
ENDCHAR
STARTCHAR U+00e9 latin small letter e with acute
ENCODING 233
SWIDTH 480 0
DWIDTH 5 0
BBX 5 11 0 -2
BITMAP
00
30
60
00
70
D8
F8
C0
70
00
00
ENDCHAR
STARTCHAR U+00ea latin small letter e with circumflex
ENCODING 234
SWIDTH 480 0
DWIDTH 5 0
BBX 5 11 0 -2
BITMAP
00
70
D8
00
70
D8
F8
C0
70
00
00
ENDCHAR
STARTCHAR U+00eb latin small letter e with diaresis
ENCODING 235
SWIDTH 480 0
DWIDTH 5 0
BBX 5 11 0 -2
BITMAP
00
D8
D8
00
70
D8
F8
C0
70
00
00
ENDCHAR
STARTCHAR U+00ec latin small letter i with grave
ENCODING 236
SWIDTH 480 0
DWIDTH 5 0
BBX 5 11 0 -2
BITMAP
00
60
30
00
70
30
30
30
30
00
00
ENDCHAR
STARTCHAR U+00ed latin small letter i with acute
ENCODING 237
SWIDTH 480 0
DWIDTH 5 0
BBX 5 11 0 -2
BITMAP
00
30
60
00
70
30
30
30
30
00
00
ENDCHAR
STARTCHAR U+00ee latin small letter i with circumflex
ENCODING 238
SWIDTH 480 0
DWIDTH 5 0
BBX 5 11 0 -2
BITMAP
00
70
D8
00
70
30
30
30
30
00
00
ENDCHAR
STARTCHAR U+00ef latin small letter i with diaresis
ENCODING 239
SWIDTH 480 0
DWIDTH 5 0
BBX 5 11 0 -2
BITMAP
00
D8
D8
00
70
30
30
30
30
00
00
ENDCHAR
STARTCHAR U+011f latin small letter g with breve
ENCODING 240
SWIDTH 480 0
DWIDTH 5 0
BBX 5 11 0 -2
BITMAP
00
88
70
00
78
D8
D8
78
18
D8
70
ENDCHAR
STARTCHAR U+00f1 latin small letter n with tilde
ENCODING 241
SWIDTH 480 0
DWIDTH 5 0
BBX 5 11 0 -2
BITMAP
00
68
B0
00
F0
D8
D8
D8
D8
00
00
ENDCHAR
STARTCHAR U+00f2 latin small letter o with grave
ENCODING 242
SWIDTH 480 0
DWIDTH 5 0
BBX 5 11 0 -2
BITMAP
00
60
30
00
70
D8
D8
D8
70
00
00
ENDCHAR
STARTCHAR U+00f3 latin small letter o with acute
ENCODING 243
SWIDTH 480 0
DWIDTH 5 0
BBX 5 11 0 -2
BITMAP
00
30
60
00
70
D8
D8
D8
70
00
00
ENDCHAR
STARTCHAR U+00f4 latin small letter o with circumflex
ENCODING 244
SWIDTH 480 0
DWIDTH 5 0
BBX 5 11 0 -2
BITMAP
00
70
D8
00
70
D8
D8
D8
70
00
00
ENDCHAR
STARTCHAR U+00f5 latin small letter o with tilde
ENCODING 245
SWIDTH 480 0
DWIDTH 5 0
BBX 5 11 0 -2
BITMAP
00
68
B0
00
70
D8
D8
D8
70
00
00
ENDCHAR
STARTCHAR U+00f6 latin small letter o with diaresis
ENCODING 246
SWIDTH 480 0
DWIDTH 5 0
BBX 5 11 0 -2
BITMAP
00
D8
D8
00
70
D8
D8
D8
70
00
00
ENDCHAR
STARTCHAR U+00f7 division sign
ENCODING 247
SWIDTH 480 0
DWIDTH 5 0
BBX 5 11 0 -2
BITMAP
00
00
60
60
00
F0
F0
00
60
60
00
ENDCHAR
STARTCHAR U+00f8 latin small letter o with stroke
ENCODING 248
SWIDTH 480 0
DWIDTH 5 0
BBX 5 11 0 -2
BITMAP
00
00
00
00
78
D8
F8
D8
F0
00
00
ENDCHAR
STARTCHAR U+00f9 latin small letter u with grave
ENCODING 249
SWIDTH 480 0
DWIDTH 5 0
BBX 5 11 0 -2
BITMAP
00
60
30
00
D8
D8
D8
D8
78
00
00
ENDCHAR
STARTCHAR U+00fa latin small letter u with acute
ENCODING 250
SWIDTH 480 0
DWIDTH 5 0
BBX 5 11 0 -2
BITMAP
00
30
60
00
D8
D8
D8
D8
78
00
00
ENDCHAR
STARTCHAR U+00fb latin small letter u with circumflex
ENCODING 251
SWIDTH 480 0
DWIDTH 5 0
BBX 5 11 0 -2
BITMAP
00
70
D8
00
D8
D8
D8
D8
78
00
00
ENDCHAR
STARTCHAR U+00fc latin small letter u with diaresis
ENCODING 252
SWIDTH 480 0
DWIDTH 5 0
BBX 5 11 0 -2
BITMAP
00
D8
D8
00
D8
D8
D8
D8
78
00
00
ENDCHAR
STARTCHAR U+0131 latin small letter dotless i
ENCODING 253
SWIDTH 480 0
DWIDTH 5 0
BBX 5 11 0 -2
BITMAP
00
00
00
00
70
30
30
30
30
00
00
ENDCHAR
STARTCHAR U+015f latin small letter s with cedilla
ENCODING 254
SWIDTH 480 0
DWIDTH 5 0
BBX 5 11 0 -2
BITMAP
00
00
00
00
78
C0
70
18
F0
30
60
ENDCHAR
STARTCHAR U+00ff latin small letter y with diaresis
ENCODING 255
SWIDTH 480 0
DWIDTH 5 0
BBX 5 11 0 -2
BITMAP
00
D8
D8
00
D8
D8
D8
78
18
D8
70
ENDCHAR
ENDFONT
